<?xml version="1.0" encoding="UTF-8" standalone="no"?>
<svg xmlns:dc="http://purl.org/dc/elements/1.1/" xmlns:cc="http://creativecommons.org/ns#" xmlns:rdf="http://www.w3.org/1999/02/22-rdf-syntax-ns#" xmlns:svg="http://www.w3.org/2000/svg" xmlns="http://www.w3.org/2000/svg" xmlns:sodipodi="http://sodipodi.sourceforge.net/DTD/sodipodi-0.dtd" xmlns:inkscape="http://www.inkscape.org/namespaces/inkscape" viewBox="0 -256 1792 1792" id="svg2989" version="1.1" inkscape:version="0.48.3.1 r9886" width="100%" height="100%" sodipodi:docname="check_font_awesome.svg">
  <metadata id="metadata2999">
    <rdf:RDF>
      <cc:Work rdf:about="">
        <dc:format>image/svg+xml</dc:format>
        <dc:type rdf:resource="http://purl.org/dc/dcmitype/StillImage"/>
      </cc:Work>
    </rdf:RDF>
  </metadata>
  <defs id="defs2997"/>
  <sodipodi:namedview pagecolor="#ffffff" bordercolor="#666666" borderopacity="1" objecttolerance="10" gridtolerance="10" guidetolerance="10" inkscape:pageopacity="0" inkscape:pageshadow="2" inkscape:window-width="640" inkscape:window-height="480" id="namedview2995" showgrid="false" inkscape:zoom="0.13169643" inkscape:cx="896" inkscape:cy="896" inkscape:window-x="0" inkscape:window-y="25" inkscape:window-maximized="0" inkscape:current-layer="svg2989"/>
  <g transform="matrix(1,0,0,-1,75.932203,1368.9492)" id="g2991">
    <path d="M 1408,606 V 288 Q 1408,169 1323.5,84.5 1239,0 1120,0 H 288 Q 169,0 84.5,84.5 0,169 0,288 v 832 Q 0,1239 84.5,1323.5 169,1408 288,1408 h 832 q 63,0 117,-25 15,-7 18,-23 3,-17 -9,-29 l -49,-49 q -10,-10 -23,-10 -3,0 -9,2 -23,6 -45,6 H 288 q -66,0 -113,-47 -47,-47 -47,-113 V 288 q 0,-66 47,-113 47,-47 113,-47 h 832 q 66,0 113,47 47,47 47,113 v 254 q 0,13 9,22 l 64,64 q 10,10 23,10 6,0 12,-3 20,-8 20,-29 z m 231,489 -814,-814 q -24,-24 -57,-24 -33,0 -57,24 L 281,711 q -24,24 -24,57 0,33 24,57 l 110,110 q 24,24 57,24 33,0 57,-24 l 263,-263 647,647 q 24,24 57,24 33,0 57,-24 l 110,-110 q 24,-24 24,-57 0,-33 -24,-57 z" id="path2993" inkscape:connector-curvature="0" style="fill:currentColor"/>
  </g>
</svg>